<mxfile host="Electron" modified="2023-10-13T09:28:47.604Z" agent="Mozilla/5.0 (Windows NT 10.0; Win64; x64) AppleWebKit/537.36 (KHTML, like Gecko) draw.io/22.0.2 Chrome/114.0.5735.289 Electron/25.8.4 Safari/537.36" etag="5TvGGnUUINAKt35HST6j" version="22.0.2" type="device">
  <diagram name="Seite-1" id="HqBW4fTeCPGUdDQ781vC">
    <mxGraphModel dx="1434" dy="844" grid="1" gridSize="10" guides="1" tooltips="1" connect="1" arrows="1" fold="1" page="1" pageScale="1" pageWidth="1169" pageHeight="1654" math="0" shadow="0">
      <root>
        <mxCell id="0" />
        <mxCell id="1" parent="0" />
        <mxCell id="XJ6b9KdQrqp1vy3ghaq9-26" value="Example B: Code generator" style="rounded=0;whiteSpace=wrap;html=1;strokeColor=none;fillColor=#BFBFBF;fontStyle=1;align=left;fontSize=16;" parent="1" vertex="1">
          <mxGeometry x="40" y="40" width="1100" height="30" as="geometry" />
        </mxCell>
        <mxCell id="SHAmAD_ecb-zwq3bcNpp-127" value="Process&amp;nbsp; package" style="shape=cube;whiteSpace=wrap;html=1;boundedLbl=1;backgroundOutline=1;darkOpacity=0.05;darkOpacity2=0.1;fontFamily=Helvetica;fontSize=11;verticalAlign=bottom;labelPosition=center;verticalLabelPosition=top;align=center;fillColor=#f8cecc;strokeColor=#b85450;" parent="1" vertex="1">
          <mxGeometry x="770" y="260" width="180" height="212.5" as="geometry" />
        </mxCell>
        <mxCell id="SHAmAD_ecb-zwq3bcNpp-128" style="edgeStyle=orthogonalEdgeStyle;shape=connector;rounded=0;orthogonalLoop=1;jettySize=auto;html=1;labelBackgroundColor=default;strokeColor=default;fontFamily=Helvetica;fontSize=11;fontColor=default;endArrow=classic;" parent="1" source="SHAmAD_ecb-zwq3bcNpp-129" target="SHAmAD_ecb-zwq3bcNpp-133" edge="1">
          <mxGeometry relative="1" as="geometry" />
        </mxCell>
        <mxCell id="SHAmAD_ecb-zwq3bcNpp-129" value="DVPD" style="shape=note;whiteSpace=wrap;html=1;backgroundOutline=1;darkOpacity=0.05;fillColor=#F3AC0C;gradientColor=none;" parent="1" vertex="1">
          <mxGeometry x="160" y="90" width="80" height="32.5" as="geometry" />
        </mxCell>
        <mxCell id="SHAmAD_ecb-zwq3bcNpp-130" style="edgeStyle=orthogonalEdgeStyle;shape=connector;rounded=0;orthogonalLoop=1;jettySize=auto;html=1;entryX=0;entryY=0.5;entryDx=0;entryDy=0;entryPerimeter=0;labelBackgroundColor=default;strokeColor=default;fontFamily=Helvetica;fontSize=11;fontColor=default;endArrow=classic;" parent="1" source="SHAmAD_ecb-zwq3bcNpp-131" target="SHAmAD_ecb-zwq3bcNpp-157" edge="1">
          <mxGeometry relative="1" as="geometry" />
        </mxCell>
        <mxCell id="SHAmAD_ecb-zwq3bcNpp-131" value="DDL Generator" style="rounded=1;whiteSpace=wrap;html=1;" parent="1" vertex="1">
          <mxGeometry x="240" y="265" width="105" height="40" as="geometry" />
        </mxCell>
        <mxCell id="SHAmAD_ecb-zwq3bcNpp-132" style="edgeStyle=orthogonalEdgeStyle;shape=connector;rounded=0;orthogonalLoop=1;jettySize=auto;html=1;entryX=0.5;entryY=0;entryDx=0;entryDy=0;labelBackgroundColor=default;strokeColor=default;fontFamily=Helvetica;fontSize=11;fontColor=default;endArrow=classic;" parent="1" source="SHAmAD_ecb-zwq3bcNpp-133" target="SHAmAD_ecb-zwq3bcNpp-134" edge="1">
          <mxGeometry relative="1" as="geometry" />
        </mxCell>
        <mxCell id="SHAmAD_ecb-zwq3bcNpp-133" value="DVPD Compiler" style="rounded=1;whiteSpace=wrap;html=1;" parent="1" vertex="1">
          <mxGeometry x="90" y="162.5" width="100" height="45" as="geometry" />
        </mxCell>
        <mxCell id="SHAmAD_ecb-zwq3bcNpp-134" value="Basic pipeline properties" style="rounded=0;whiteSpace=wrap;html=1;fillColor=#F3AC0C;gradientColor=none;fontSize=10;" parent="1" vertex="1">
          <mxGeometry x="80" y="245" width="120" height="20" as="geometry" />
        </mxCell>
        <mxCell id="SHAmAD_ecb-zwq3bcNpp-174" style="edgeStyle=orthogonalEdgeStyle;shape=connector;rounded=0;orthogonalLoop=1;jettySize=auto;html=1;entryX=0;entryY=0.5;entryDx=0;entryDy=0;labelBackgroundColor=default;strokeColor=default;fontFamily=Helvetica;fontSize=11;fontColor=default;endArrow=classic;" parent="1" source="SHAmAD_ecb-zwq3bcNpp-135" target="SHAmAD_ecb-zwq3bcNpp-155" edge="1">
          <mxGeometry relative="1" as="geometry" />
        </mxCell>
        <mxCell id="SHAmAD_ecb-zwq3bcNpp-135" value="increment &amp;amp; deletion properties" style="rounded=0;whiteSpace=wrap;html=1;fillColor=#F3AC0C;gradientColor=none;fontSize=10;" parent="1" vertex="1">
          <mxGeometry x="80" y="375" width="120" height="30" as="geometry" />
        </mxCell>
        <mxCell id="SHAmAD_ecb-zwq3bcNpp-136" style="edgeStyle=orthogonalEdgeStyle;shape=connector;rounded=0;orthogonalLoop=1;jettySize=auto;html=1;labelBackgroundColor=default;strokeColor=default;fontFamily=Helvetica;fontSize=11;fontColor=default;endArrow=classic;" parent="1" source="SHAmAD_ecb-zwq3bcNpp-137" target="SHAmAD_ecb-zwq3bcNpp-131" edge="1">
          <mxGeometry relative="1" as="geometry">
            <Array as="points">
              <mxPoint x="220" y="330" />
              <mxPoint x="220" y="285" />
            </Array>
          </mxGeometry>
        </mxCell>
        <mxCell id="SHAmAD_ecb-zwq3bcNpp-137" value="structure of &lt;br&gt;data vault tables" style="rounded=0;whiteSpace=wrap;html=1;fillColor=#F3AC0C;gradientColor=none;fontSize=10;" parent="1" vertex="1">
          <mxGeometry x="80" y="315" width="120" height="30" as="geometry" />
        </mxCell>
        <mxCell id="SHAmAD_ecb-zwq3bcNpp-138" style="edgeStyle=orthogonalEdgeStyle;shape=connector;rounded=0;orthogonalLoop=1;jettySize=auto;html=1;labelBackgroundColor=default;strokeColor=default;fontFamily=Helvetica;fontSize=11;fontColor=default;endArrow=classic;" parent="1" source="SHAmAD_ecb-zwq3bcNpp-139" target="SHAmAD_ecb-zwq3bcNpp-133" edge="1">
          <mxGeometry relative="1" as="geometry" />
        </mxCell>
        <mxCell id="SHAmAD_ecb-zwq3bcNpp-139" value="model profile" style="shape=note;whiteSpace=wrap;html=1;backgroundOutline=1;darkOpacity=0.05;fillColor=#F3AC0C;gradientColor=none;size=24;" parent="1" vertex="1">
          <mxGeometry x="40" y="92.5" width="90" height="30" as="geometry" />
        </mxCell>
        <mxCell id="SHAmAD_ecb-zwq3bcNpp-140" style="edgeStyle=orthogonalEdgeStyle;shape=connector;rounded=0;orthogonalLoop=1;jettySize=auto;html=1;labelBackgroundColor=default;strokeColor=default;fontFamily=Helvetica;fontSize=11;fontColor=default;endArrow=classic;" parent="1" source="SHAmAD_ecb-zwq3bcNpp-141" target="SHAmAD_ecb-zwq3bcNpp-131" edge="1">
          <mxGeometry relative="1" as="geometry">
            <mxPoint x="240" y="365" as="targetPoint" />
            <Array as="points">
              <mxPoint x="220" y="360" />
              <mxPoint x="220" y="285" />
            </Array>
          </mxGeometry>
        </mxCell>
        <mxCell id="SHAmAD_ecb-zwq3bcNpp-141" value="structure of &lt;br&gt;stage table" style="rounded=0;whiteSpace=wrap;html=1;fillColor=#F3AC0C;gradientColor=none;fontSize=10;" parent="1" vertex="1">
          <mxGeometry x="80" y="345" width="120" height="30" as="geometry" />
        </mxCell>
        <mxCell id="SHAmAD_ecb-zwq3bcNpp-178" style="edgeStyle=orthogonalEdgeStyle;shape=connector;rounded=0;orthogonalLoop=1;jettySize=auto;html=1;entryX=0;entryY=0.5;entryDx=0;entryDy=0;labelBackgroundColor=default;strokeColor=default;fontFamily=Helvetica;fontSize=11;fontColor=default;endArrow=classic;" parent="1" source="SHAmAD_ecb-zwq3bcNpp-142" target="SHAmAD_ecb-zwq3bcNpp-155" edge="1">
          <mxGeometry relative="1" as="geometry">
            <Array as="points">
              <mxPoint x="220" y="450" />
              <mxPoint x="220" y="390" />
            </Array>
          </mxGeometry>
        </mxCell>
        <mxCell id="SHAmAD_ecb-zwq3bcNpp-142" value="process step specifc mapping of data" style="rounded=0;whiteSpace=wrap;html=1;fillColor=#F3AC0C;gradientColor=none;fontSize=10;" parent="1" vertex="1">
          <mxGeometry x="80" y="435" width="120" height="30" as="geometry" />
        </mxCell>
        <mxCell id="SHAmAD_ecb-zwq3bcNpp-175" style="edgeStyle=orthogonalEdgeStyle;shape=connector;rounded=0;orthogonalLoop=1;jettySize=auto;html=1;labelBackgroundColor=default;strokeColor=default;fontFamily=Helvetica;fontSize=11;fontColor=default;endArrow=classic;" parent="1" source="SHAmAD_ecb-zwq3bcNpp-143" target="SHAmAD_ecb-zwq3bcNpp-155" edge="1">
          <mxGeometry relative="1" as="geometry">
            <Array as="points">
              <mxPoint x="220" y="420" />
              <mxPoint x="220" y="390" />
            </Array>
          </mxGeometry>
        </mxCell>
        <mxCell id="SHAmAD_ecb-zwq3bcNpp-143" value="Fetch properties of fields" style="rounded=0;whiteSpace=wrap;html=1;fillColor=#F3AC0C;gradientColor=none;fontSize=10;" parent="1" vertex="1">
          <mxGeometry x="80" y="405" width="120" height="30" as="geometry" />
        </mxCell>
        <mxCell id="SHAmAD_ecb-zwq3bcNpp-179" style="edgeStyle=orthogonalEdgeStyle;shape=connector;rounded=0;orthogonalLoop=1;jettySize=auto;html=1;entryX=0;entryY=0.5;entryDx=0;entryDy=0;labelBackgroundColor=default;strokeColor=default;fontFamily=Helvetica;fontSize=10;fontColor=default;endArrow=classic;" parent="1" source="SHAmAD_ecb-zwq3bcNpp-144" target="SHAmAD_ecb-zwq3bcNpp-155" edge="1">
          <mxGeometry relative="1" as="geometry">
            <Array as="points">
              <mxPoint x="220" y="480" />
              <mxPoint x="220" y="390" />
            </Array>
          </mxGeometry>
        </mxCell>
        <mxCell id="SHAmAD_ecb-zwq3bcNpp-144" value="process step specific hash key assembly mapping" style="rounded=0;whiteSpace=wrap;html=1;fillColor=#F3AC0C;gradientColor=none;fontSize=10;" parent="1" vertex="1">
          <mxGeometry x="80" y="465" width="120" height="30" as="geometry" />
        </mxCell>
        <mxCell id="SHAmAD_ecb-zwq3bcNpp-150" value="Mapping of fields to model" style="rounded=0;whiteSpace=wrap;html=1;fillColor=#F3AC0C;gradientColor=none;fontSize=10;" parent="1" vertex="1">
          <mxGeometry x="80" y="290" width="120" height="25" as="geometry" />
        </mxCell>
        <mxCell id="SHAmAD_ecb-zwq3bcNpp-152" value="Data Vault&amp;nbsp;Tables &amp;amp; Relations" style="rounded=0;whiteSpace=wrap;html=1;fillColor=#F3AC0C;gradientColor=none;fontSize=10;" parent="1" vertex="1">
          <mxGeometry x="80" y="265" width="120" height="25" as="geometry" />
        </mxCell>
        <mxCell id="SHAmAD_ecb-zwq3bcNpp-187" style="edgeStyle=orthogonalEdgeStyle;shape=connector;rounded=0;orthogonalLoop=1;jettySize=auto;html=1;labelBackgroundColor=default;strokeColor=default;fontFamily=Helvetica;fontSize=10;fontColor=default;endArrow=classic;entryX=-0.011;entryY=0.616;entryDx=0;entryDy=0;entryPerimeter=0;" parent="1" source="SHAmAD_ecb-zwq3bcNpp-155" target="SHAmAD_ecb-zwq3bcNpp-127" edge="1">
          <mxGeometry relative="1" as="geometry" />
        </mxCell>
        <mxCell id="SHAmAD_ecb-zwq3bcNpp-155" value="Code generator" style="rounded=1;whiteSpace=wrap;html=1;" parent="1" vertex="1">
          <mxGeometry x="565" y="355" width="105" height="70" as="geometry" />
        </mxCell>
        <mxCell id="SHAmAD_ecb-zwq3bcNpp-186" style="shape=connector;rounded=0;orthogonalLoop=1;jettySize=auto;html=1;entryX=0.5;entryY=0;entryDx=0;entryDy=0;labelBackgroundColor=default;strokeColor=default;fontFamily=Helvetica;fontSize=10;fontColor=default;endArrow=classic;" parent="1" source="SHAmAD_ecb-zwq3bcNpp-157" target="SHAmAD_ecb-zwq3bcNpp-155" edge="1">
          <mxGeometry relative="1" as="geometry" />
        </mxCell>
        <mxCell id="SHAmAD_ecb-zwq3bcNpp-157" value="Create Statements" style="shape=note;whiteSpace=wrap;html=1;backgroundOutline=1;darkOpacity=0.05;size=15;" parent="1" vertex="1">
          <mxGeometry x="380" y="260" width="105" height="50" as="geometry" />
        </mxCell>
        <mxCell id="SHAmAD_ecb-zwq3bcNpp-168" value="deployment code&lt;br&gt;fetch code&lt;br&gt;stage code&lt;br&gt;load code" style="shape=process;whiteSpace=wrap;html=1;backgroundOutline=1;fontFamily=Helvetica;fontSize=11;fontColor=default;" parent="1" vertex="1">
          <mxGeometry x="800" y="330" width="140" height="70" as="geometry" />
        </mxCell>
        <mxCell id="SHAmAD_ecb-zwq3bcNpp-169" value="libraries" style="shape=process;whiteSpace=wrap;html=1;backgroundOutline=1;fontFamily=Helvetica;fontSize=11;fontColor=default;dashed=1;" parent="1" vertex="1">
          <mxGeometry x="800" y="287.5" width="140" height="42.5" as="geometry" />
        </mxCell>
        <mxCell id="SHAmAD_ecb-zwq3bcNpp-170" value="Create Statements" style="shape=note;whiteSpace=wrap;html=1;backgroundOutline=1;darkOpacity=0.05;size=15;dashed=1;" parent="1" vertex="1">
          <mxGeometry x="817.5" y="406.25" width="105" height="50" as="geometry" />
        </mxCell>
        <mxCell id="SHAmAD_ecb-zwq3bcNpp-183" style="shape=connector;rounded=0;orthogonalLoop=1;jettySize=auto;html=1;labelBackgroundColor=default;strokeColor=default;fontFamily=Helvetica;fontSize=10;fontColor=default;endArrow=classic;" parent="1" source="SHAmAD_ecb-zwq3bcNpp-172" target="SHAmAD_ecb-zwq3bcNpp-173" edge="1">
          <mxGeometry relative="1" as="geometry" />
        </mxCell>
        <mxCell id="SHAmAD_ecb-zwq3bcNpp-172" value="DWH Developer" style="shape=umlActor;verticalLabelPosition=bottom;verticalAlign=top;html=1;outlineConnect=0;fontFamily=Helvetica;fontSize=11;fontColor=default;" parent="1" vertex="1">
          <mxGeometry x="282.5" y="443.75" width="30" height="60" as="geometry" />
        </mxCell>
        <mxCell id="SHAmAD_ecb-zwq3bcNpp-173" value="load famework &lt;br&gt;libraries" style="shape=process;whiteSpace=wrap;html=1;backgroundOutline=1;fontFamily=Helvetica;fontSize=11;fontColor=default;" parent="1" vertex="1">
          <mxGeometry x="382.5" y="452.5" width="140" height="42.5" as="geometry" />
        </mxCell>
        <mxCell id="SHAmAD_ecb-zwq3bcNpp-180" style="edgeStyle=orthogonalEdgeStyle;shape=connector;rounded=0;orthogonalLoop=1;jettySize=auto;html=1;exitX=0.5;exitY=1;exitDx=0;exitDy=0;exitPerimeter=0;labelBackgroundColor=default;strokeColor=default;fontFamily=Helvetica;fontSize=10;fontColor=default;endArrow=classic;" parent="1" source="SHAmAD_ecb-zwq3bcNpp-157" target="SHAmAD_ecb-zwq3bcNpp-157" edge="1">
          <mxGeometry relative="1" as="geometry" />
        </mxCell>
        <mxCell id="SHAmAD_ecb-zwq3bcNpp-181" value="parsing libraries" style="shape=process;whiteSpace=wrap;html=1;backgroundOutline=1;fontFamily=Helvetica;fontSize=11;fontColor=default;" parent="1" vertex="1">
          <mxGeometry x="382.5" y="495" width="140" height="27.5" as="geometry" />
        </mxCell>
        <mxCell id="SHAmAD_ecb-zwq3bcNpp-184" style="shape=connector;rounded=0;orthogonalLoop=1;jettySize=auto;html=1;labelBackgroundColor=default;strokeColor=default;fontFamily=Helvetica;fontSize=10;fontColor=default;endArrow=classic;exitX=1;exitY=0.75;exitDx=0;exitDy=0;" parent="1" source="SHAmAD_ecb-zwq3bcNpp-173" target="SHAmAD_ecb-zwq3bcNpp-155" edge="1">
          <mxGeometry relative="1" as="geometry" />
        </mxCell>
        <mxCell id="SHAmAD_ecb-zwq3bcNpp-182" value="increment pattern libraries" style="shape=process;whiteSpace=wrap;html=1;backgroundOutline=1;fontFamily=Helvetica;fontSize=11;fontColor=default;" parent="1" vertex="1">
          <mxGeometry x="382.5" y="410" width="140" height="42.5" as="geometry" />
        </mxCell>
        <mxCell id="SHAmAD_ecb-zwq3bcNpp-236" value="Source" style="rounded=1;whiteSpace=wrap;html=1;fillColor=#f8cecc;strokeColor=#b85450;" parent="1" vertex="1">
          <mxGeometry x="813.75" y="167" width="105" height="40" as="geometry" />
        </mxCell>
        <mxCell id="SHAmAD_ecb-zwq3bcNpp-237" value="" style="shape=flexArrow;endArrow=classic;html=1;rounded=0;labelBackgroundColor=default;strokeColor=#b85450;fontFamily=Helvetica;fontSize=10;fontColor=default;exitX=0.5;exitY=1;exitDx=0;exitDy=0;entryX=0.5;entryY=0;entryDx=0;entryDy=0;entryPerimeter=0;fillColor=#f8cecc;" parent="1" source="SHAmAD_ecb-zwq3bcNpp-236" edge="1">
          <mxGeometry width="50" height="50" relative="1" as="geometry">
            <mxPoint x="865.75" y="212.25" as="sourcePoint" />
            <mxPoint x="865.75" y="253.25" as="targetPoint" />
          </mxGeometry>
        </mxCell>
        <mxCell id="SHAmAD_ecb-zwq3bcNpp-238" value="Vault" style="shape=cylinder3;whiteSpace=wrap;html=1;boundedLbl=1;backgroundOutline=1;size=15;rounded=0;strokeColor=#b85450;fontFamily=Helvetica;fontSize=12;fillColor=#f8cecc;" parent="1" vertex="1">
          <mxGeometry x="816.25" y="507" width="120" height="63" as="geometry" />
        </mxCell>
        <mxCell id="SHAmAD_ecb-zwq3bcNpp-239" value="" style="shape=flexArrow;endArrow=classic;html=1;rounded=0;labelBackgroundColor=default;strokeColor=#b85450;fontFamily=Helvetica;fontSize=10;fontColor=default;exitX=0;exitY=0;exitDx=100;exitDy=212.5;exitPerimeter=0;entryX=0.5;entryY=0;entryDx=0;entryDy=0;entryPerimeter=0;fillColor=#f8cecc;" parent="1" edge="1">
          <mxGeometry width="50" height="50" relative="1" as="geometry">
            <mxPoint x="869.5" y="472.5" as="sourcePoint" />
            <mxPoint x="869.5" y="513.5" as="targetPoint" />
          </mxGeometry>
        </mxCell>
      </root>
    </mxGraphModel>
  </diagram>
</mxfile>
